<svg width="200" height="54" viewBox="0 0 200 54" fill="none" xmlns="http://www.w3.org/2000/svg">
<g clip-path="url(#clip0_2005_412)">
<path d="M0.158447 26.8341L27.0352 53.4937V0.174561L0.158447 26.8341Z" fill="#DB0011"/>
<path d="M27.0352 0.174561L53.9119 26.8341L80.7886 0.174561H27.0352Z" fill="#DB0011"/>
<path d="M27.0352 53.4938H80.7886L53.9119 26.8342L27.0352 53.4938Z" fill="#DB0011"/>
<path d="M80.7709 53.4937L107.648 26.8341L80.7709 0.174561V53.4937Z" fill="#DB0011"/>
<path d="M136.126 0.157227L134.56 1.9031C135.827 2.86334 137.024 3.9807 138.221 5.35994L139.981 3.50931C138.872 2.30466 137.587 1.18729 136.126 0.157227Z" fill="black"/>
<path d="M137.534 11.6274L139.4 9.88155C138.502 8.76419 137.252 7.55953 135.616 6.23267L133.943 7.996C135.228 9.07845 136.408 10.2656 137.534 11.6274Z" fill="black"/>
<path d="M136.478 22.8711C137.921 19.973 138.977 17.1621 139.717 14.3163L137.376 13.3037C136.795 16.0797 135.704 18.8032 134.137 21.3871L136.478 22.8711Z" fill="black"/>
<path d="M142.938 2.91573H157.142V0.838135H140.403V22.295H157.142V20.1999H142.938V2.91573Z" fill="black"/>
<path d="M150.224 9.5675H147.514V8.10096H150.224V9.5675ZM150.224 13.1466H147.514V11.5578H150.224V13.1466ZM150.224 16.7431H147.514V15.1543H150.224V16.7431ZM150.84 6.00591H147.672L147.743 5.86624C147.989 5.41231 148.218 4.88855 148.5 4.15528L146.37 3.33472C145.543 5.56944 144.522 7.47245 143.325 9.00882L144.258 11.488C144.557 11.1737 144.786 10.8944 144.962 10.615L145.138 10.3357V19.4317H147.531V18.8207H156.35V16.7431H152.636V15.1543H155.558V13.1466H152.636V11.5578H155.558V9.5675H152.636V8.10096H156.35V6.00591H152.178L153.217 5.18535C152.759 4.55683 152.108 3.94577 151.245 3.33472L149.591 4.71396L150.84 6.00591Z" fill="black"/>
<path d="M177.101 7.80405H178.791V6.28514H177.101V5.20269H178.492V3.7187H177.101V2.74101H178.791V1.22209H177.101V0.226942H174.989V1.22209H173.264V2.74101H174.989V3.7187H173.581V5.20269H174.989V6.28514H173.264V7.80405H174.989V8.8865H172.49V0.139648H170.36V8.8865H167.878V7.80405H169.586V6.28514H167.878V5.20269H169.286V3.7187H167.878V2.74101H169.586V1.22209H167.878V0.226942H165.749V1.22209H164.059V2.74101H165.749V3.7187H164.376V5.20269H165.749V6.28514H164.059V7.80405H165.749V8.8865H163.284V0.925293H161.067V10.58H181.783V0.925293H179.565V8.8865H177.101V7.80405Z" fill="black"/>
<path d="M182.698 11.645H160.169V13.3734H182.698V11.645Z" fill="black"/>
<path d="M175.077 19.0475C174.778 19.6062 174.443 20.1299 174.074 20.5664L174.056 20.6013H169.04L169.022 20.5489C168.776 20.1299 168.477 19.6236 168.125 19.0475L168.037 18.9078H175.183L175.077 19.0475ZM165.08 16.0446H177.77V17.3191H165.062V16.0446H165.08ZM176.908 20.4616C177.26 19.9902 177.541 19.449 177.805 18.9776L177.823 18.9253H180.305V14.4558H162.545V18.9253H165.009L166.136 20.6188H159.958V22.3123H182.786V20.6013H176.802L176.908 20.4616Z" fill="black"/>
<path d="M131.251 31.0068V40.1378H121.5V31.0068H116.607V53.3192H121.5V43.7867H131.251V53.3192H136.126V31.0068H131.251Z" fill="black"/>
<path d="M147.831 53.8428C142.973 53.8428 138.995 51.9224 138.889 46.58H143.782C143.853 48.9544 145.243 50.386 147.919 50.386C149.908 50.386 152.161 49.3909 152.161 47.1736C152.161 45.4452 150.629 44.8865 148.112 44.1707L146.493 43.6993C142.938 42.6867 139.435 41.3249 139.435 37.3094C139.435 32.3336 144.099 30.675 148.376 30.675C152.759 30.675 156.526 32.194 156.561 37.1348H151.668C151.474 35.0921 150.295 33.9224 147.989 33.9224C146.176 33.9224 144.381 34.8826 144.381 36.8555C144.381 38.4966 145.877 38.9854 149.045 39.9806L150.911 40.5742C154.765 41.7788 157.194 43.1057 157.194 46.807C157.212 51.9049 152.249 53.8428 147.831 53.8428Z" fill="black"/>
<path d="M168.265 50.1066C170.536 50.1066 172.771 49.5828 172.771 46.8593C172.771 44.2055 170.835 43.577 168.547 43.577H164.692V50.0891H168.265V50.1066ZM167.808 40.417C169.955 40.417 172.138 39.9805 172.138 37.3966C172.138 35.0746 170.078 34.4635 168.125 34.4635H164.71V40.417H167.808ZM159.958 31.1289H167.773C170.237 31.1289 171.222 31.1987 172.19 31.4082C174.936 32.0193 176.978 33.7826 176.978 36.7855C176.978 39.6488 175.147 41.1328 172.49 41.8137C175.535 42.3724 177.788 43.9087 177.788 47.2084C177.788 52.2715 172.754 53.4412 168.793 53.4412H159.958V31.1289Z" fill="black"/>
<path d="M190.531 53.8428C183.279 53.8428 180.005 49.2337 180.005 42.4423C180.005 35.7032 183.613 30.675 190.777 30.675C195.265 30.675 199.613 32.6479 199.736 37.7109H194.684C194.438 35.4937 192.942 34.3065 190.759 34.3065C186.377 34.3065 185.022 39.0029 185.022 42.5819C185.022 46.1261 186.359 50.2638 190.601 50.2638C192.819 50.2638 194.438 49.0941 194.772 46.8419H199.842C199.314 51.9398 195.195 53.8428 190.531 53.8428Z" fill="black"/>
</g>
<defs>
<clipPath id="clip0_2005_412">
<rect width="200" height="54" fill="white"/>
</clipPath>
</defs>
</svg>
