<svg width="200" height="34" viewBox="0 0 200 34" fill="none" xmlns="http://www.w3.org/2000/svg">
<g clip-path="url(#clip0_2002_417)">
<path d="M0 17V0H100H200V17V34H100H0V17ZM58.6981 30.8709C64.6048 29.8262 68.7498 25.4479 69.6922 19.2584C70.6016 13.2855 68.233 7.48297 63.6875 4.54846C59.0135 1.53096 52.0501 1.53116 47.3789 4.54892C44.2431 6.57474 42.0655 10.1146 41.3661 14.323C41.0586 16.1736 41.1798 18.9852 41.6475 20.8516C42.0106 22.3004 42.973 24.4785 43.7342 25.5738C44.9745 27.3587 47.2135 29.1488 49.2619 29.9931C51.9667 31.108 55.4996 31.4367 58.6981 30.8709ZM53.2528 25.833C51.8414 25.5195 50.3002 24.6868 49.3019 23.6984C46.4983 20.9224 45.8509 15.5502 47.8629 11.7568C48.4301 10.6875 49.7467 9.24121 50.7101 8.62906C52.7834 7.31179 56.1487 6.98621 58.739 7.85232C61.9625 8.93014 64.1202 12.0948 64.3423 16.0703C64.5611 19.9872 62.964 23.3916 60.1725 24.9587C58.9337 25.6542 57.7936 25.9242 55.8685 25.9779C54.6652 26.0115 53.8545 25.9666 53.2528 25.833ZM164.128 30.8715C165.56 30.6181 166.857 30.1707 168.3 29.4324C169.524 28.8064 171.697 27.2107 171.697 26.9384C171.697 26.7164 168.192 23.2422 167.968 23.2422C167.865 23.2422 167.503 23.4842 167.164 23.7799C165.721 25.0375 163.191 25.8984 160.939 25.8984C156.191 25.8984 152.862 23.3736 151.971 19.0958C151.042 14.6421 152.857 10.3783 156.417 8.65074C158.068 7.84913 158.986 7.64694 160.966 7.64919C163.426 7.65228 165.211 8.2194 166.807 9.50653C167.207 9.8295 167.605 10.0937 167.69 10.0937C167.868 10.0937 171.207 6.92084 171.267 6.69442C171.321 6.4935 170.018 5.33067 168.983 4.65483C165.739 2.53733 161.76 1.8187 157.604 2.5994C150.437 3.94542 145.854 10.0527 146.256 17.7191C146.57 23.6959 149.767 28.2965 154.885 30.1386C157.68 31.1447 161.065 31.4131 164.128 30.8715ZM9.3226 16.7344V2.98828L6.6063 2.95233L3.89001 2.91638V16.7344V30.5524L6.6063 30.5164L9.3226 30.4805V16.7344ZM19.8199 21.6709C19.8471 14.723 19.8896 12.8724 20.0211 12.914C20.1128 12.9429 23.2795 16.8176 27.0583 21.5242C31.6389 27.2296 34.0748 30.1593 34.3668 30.3143C34.7024 30.4926 35.1261 30.5469 36.1817 30.5469H37.5587V16.7344V2.92187H34.8089H32.059V11.0332C32.059 17.8878 32.0301 19.1378 31.8727 19.1015C31.7702 19.0779 28.9436 15.6221 25.5914 11.4219C21.5976 6.41785 19.2997 3.6478 18.9257 3.38672C18.362 2.9932 18.3303 2.98775 16.3539 2.94551L14.3528 2.90274V16.7276V30.5524L17.0691 30.5164L19.7854 30.4805L19.8199 21.6709ZM86.8545 30.2946C87.1496 30.159 87.5836 29.8465 87.8189 29.6002C88.1318 29.2727 89.8352 25.6451 94.1569 16.1027C97.4075 8.92545 100.067 3.02249 100.067 2.98505C100.067 2.94761 98.6646 2.93302 96.9505 2.95263L93.8338 2.98829L89.3883 13.2812C86.8339 19.1956 84.8704 23.5742 84.7726 23.5742C84.6749 23.5742 82.7053 19.1908 80.1476 13.2812L75.6928 2.98829L72.5882 2.95263C70.8807 2.93303 69.4836 2.95387 69.4836 2.99892C69.4836 3.04398 72.1468 8.95792 75.4019 16.141C79.751 25.7384 81.4314 29.3145 81.7399 29.6285C82.4681 30.3698 83.0377 30.5411 84.7753 30.5411C85.9958 30.5411 86.4299 30.4896 86.8545 30.2946ZM116.8 30.2481C116.741 29.978 105.141 4.30898 104.669 3.40466C104.559 3.19353 104.42 3.07529 104.357 3.13903C104.295 3.20221 103.631 4.59863 102.883 6.24219C101.649 8.95286 101.536 9.26748 101.664 9.6289C101.742 9.84804 102.797 12.2686 104.008 15.0078C105.967 19.4351 106.188 20.0067 105.998 20.1543C105.836 20.2797 104.663 20.3203 101.198 20.3203C97.6893 20.3203 96.5813 20.3593 96.4803 20.4863C96.3349 20.6691 94.2991 25.1451 94.2991 25.282C94.2991 25.3288 97.3927 25.368 101.174 25.369C104.955 25.3702 108.177 25.4051 108.335 25.447C108.552 25.5046 108.826 25.982 109.46 27.4042C109.92 28.4387 110.441 29.569 110.617 29.916L110.937 30.5469H113.901H116.866L116.8 30.2481ZM124.85 21.6816C124.871 16.4681 124.935 12.8828 125.007 12.8828C125.075 12.8828 128.247 16.7678 132.056 21.5161C136.359 26.8793 139.133 30.2265 139.38 30.3528C139.678 30.5053 140.119 30.5467 141.149 30.5183L142.522 30.4804L142.556 16.7011L142.59 2.92185H139.84H137.089L137.087 10.7246C137.086 18.0925 137.054 19.125 136.832 19.125C136.781 19.125 133.97 15.6546 130.585 11.4131C127.199 7.17158 124.275 3.5924 124.086 3.45935C123.471 3.02609 122.739 2.90501 120.993 2.94748L119.316 2.98825L119.281 16.6015C119.262 24.0888 119.276 30.2908 119.312 30.3836C119.362 30.5141 119.994 30.5442 122.096 30.5164L124.816 30.4805L124.85 21.6816ZM197.183 28.1563V25.7656L191.583 25.7613C184.573 25.7564 183.371 25.6202 181.946 24.6709C180.711 23.8476 180 22.5399 179.707 20.5478C179.577 19.6639 179.584 19.4889 179.75 19.3845C179.865 19.3128 183.338 19.2608 188.095 19.2596L196.244 19.2578V16.7343V14.2109L188.095 14.209C183.338 14.2078 179.865 14.1559 179.75 14.0842C179.584 13.9798 179.577 13.8048 179.707 12.9209C180.178 9.72334 181.675 8.25983 184.909 7.83484C185.426 7.76699 188.399 7.70963 191.516 7.70737L197.183 7.70305V5.31243V2.9218L190.644 2.9226C183.69 2.92347 182.566 2.9984 180.617 3.59187C178.349 4.28238 176.712 5.56703 175.738 7.42132C174.583 9.6194 174.213 11.8765 174.213 16.7343C174.213 20.4476 174.369 22.0517 174.921 24.025C175.738 26.9441 177.668 28.9556 180.483 29.8234C182.525 30.4529 183.48 30.5201 190.577 30.534L197.183 30.5468V28.1563Z" fill="#F9FBFC"/>
<path d="M53.7894 31.0788C50.2779 30.7491 47.1576 29.3353 45.0429 27.1158C43.9018 25.9181 43.4426 25.2433 42.6495 23.599C41.7246 21.6814 41.3163 19.9413 41.2255 17.5313C41.0553 13.0114 42.5168 9.027 45.3961 6.1613C49.2903 2.28543 56.0528 1.16022 61.6319 3.45984C65.8735 5.20819 68.9432 9.29036 69.6862 14.1707C70.6823 20.7142 67.7748 27.0459 62.6064 29.5881C61.9992 29.8868 61.1157 30.2544 60.6431 30.405C58.7462 31.0097 55.9653 31.283 53.7894 31.0788ZM58.5513 25.6355C60.398 25.0578 61.68 24.1097 62.7438 22.5349C64.7029 19.6348 64.9172 14.9838 63.2375 11.8225C62.2131 9.89473 60.6065 8.4768 58.739 7.85237C56.1487 6.98627 52.7834 7.31184 50.7101 8.62912C49.7467 9.24127 48.4302 10.6875 47.863 11.7569C47.1352 13.129 46.8038 14.4213 46.7227 16.2032C46.5 21.1016 49.08 24.9062 53.2529 25.833C54.5533 26.1219 57.3272 26.0185 58.5513 25.6355ZM159.173 31.0755C151.527 30.3664 146.656 25.3301 146.256 17.7192C145.854 10.0528 150.437 3.94547 157.604 2.59945C161.76 1.81875 165.739 2.53739 168.983 4.65488C170.018 5.33072 171.321 6.49355 171.267 6.69447C171.207 6.92089 167.868 10.0938 167.69 10.0938C167.605 10.0938 167.207 9.82955 166.807 9.50658C165.951 8.81626 164.732 8.21659 163.514 7.88714C162.326 7.56553 159.626 7.55919 158.417 7.87516C155.475 8.64402 153.274 10.6242 152.312 13.3697C151.662 15.2253 151.551 17.0823 151.971 19.0958C152.862 23.3736 156.191 25.8985 160.939 25.8985C163.191 25.8985 165.721 25.0376 167.164 23.78C167.503 23.4842 167.865 23.2422 167.968 23.2422C168.192 23.2422 171.697 26.7165 171.697 26.9385C171.697 27.2108 169.524 28.8065 168.3 29.4324C166.857 30.1708 165.56 30.6182 164.128 30.8716C162.686 31.1265 160.634 31.211 159.173 31.0755ZM3.89001 16.7344V2.91643L6.60631 2.95238L9.32261 2.98833V16.7344V30.4805L6.60631 30.5165L3.89001 30.5524V16.7344ZM14.3528 16.7276V2.90279L16.3539 2.94556C18.3303 2.98781 18.362 2.99325 18.9257 3.38678C19.2997 3.64786 21.5976 6.41791 25.5914 11.4219C28.9436 15.6221 31.7702 19.078 31.8727 19.1016C32.0302 19.1379 32.059 17.8879 32.059 11.0332V2.92193H34.8089H37.5587V16.7344V30.5469H36.1817C35.1262 30.5469 34.7024 30.4926 34.3668 30.3144C34.0748 30.1594 31.6389 27.2296 27.0583 21.5243C23.2795 16.8176 20.1128 12.943 20.0211 12.914C19.8896 12.8725 19.8471 14.723 19.8199 21.6709L19.7854 30.4805L17.0691 30.5165L14.3528 30.5524L14.3528 16.7276ZM82.6962 30.2985C82.4011 30.165 81.9707 29.8635 81.7399 29.6285C81.4314 29.3145 79.751 25.7385 75.4019 16.1411C72.1468 8.95797 69.4836 3.04403 69.4836 2.99897C69.4836 2.95391 70.8807 2.93308 72.5882 2.95268L75.6928 2.98833L80.1476 13.2813C82.7053 19.1909 84.6749 23.5743 84.7726 23.5743C84.8704 23.5743 86.8339 19.1957 89.3883 13.2813L93.8339 2.98833L96.9505 2.95268C98.6646 2.93308 100.067 2.94768 100.067 2.9851C100.067 3.02254 97.4075 8.9255 94.1569 16.1028C89.8352 25.6452 88.1318 29.2728 87.8189 29.6002C87.0857 30.3676 86.5247 30.5411 84.7753 30.5411C83.5666 30.5411 83.1166 30.4886 82.6962 30.2985ZM110.617 29.9161C110.441 29.5691 109.92 28.4388 109.46 27.4043C108.826 25.982 108.552 25.5047 108.335 25.4471C108.177 25.4052 104.955 25.3701 101.174 25.3691C97.3927 25.3678 94.2991 25.3289 94.2991 25.282C94.2991 25.1452 96.3349 20.6691 96.4803 20.4864C96.5813 20.3594 97.6893 20.3204 101.198 20.3204C104.663 20.3204 105.836 20.2798 105.998 20.1544C106.188 20.0068 105.967 19.4352 104.008 15.0079C102.797 12.2686 101.742 9.84812 101.664 9.62897C101.536 9.26756 101.649 8.95293 102.883 6.24226C103.631 4.5987 104.295 3.20229 104.357 3.13911C104.42 3.07537 104.559 3.1936 104.669 3.40473C105.141 4.30905 116.741 29.9781 116.8 30.2481L116.866 30.5469H113.901H110.937L110.617 29.9161ZM119.312 30.3837C119.276 30.2909 119.262 24.0889 119.281 16.6016L119.316 2.98835L120.993 2.94758C122.739 2.90512 123.471 3.02619 124.086 3.45945C124.275 3.5925 127.199 7.17169 130.585 11.4132C133.97 15.6547 136.781 19.1251 136.832 19.1251C137.054 19.1251 137.086 18.0926 137.087 10.7247L137.089 2.92195H139.84H142.59L142.556 16.7012L142.522 30.4805L141.149 30.5184C140.12 30.5468 139.678 30.5054 139.38 30.3529C139.133 30.2266 136.359 26.8794 132.056 21.5162C128.247 16.7679 125.075 12.8829 125.007 12.8829C124.935 12.8829 124.87 16.4682 124.85 21.6817L124.816 30.4806L122.096 30.5165C119.994 30.5443 119.362 30.514 119.312 30.3837ZM182.763 30.3378C180.09 29.9316 178.281 29.101 176.911 27.6516C175.583 26.2466 174.886 24.5613 174.433 21.6583C174.125 19.6866 174.125 13.7822 174.433 11.8106C175.173 7.0676 176.948 4.70885 180.617 3.59198C182.566 2.99852 183.69 2.92355 190.644 2.92272L197.183 2.92191V5.31254V7.70317L191.516 7.70749C188.399 7.70996 185.426 7.76708 184.909 7.83496C181.675 8.25994 180.178 9.72345 179.707 12.921C179.577 13.8049 179.584 13.9799 179.75 14.0843C179.865 14.156 183.338 14.208 188.095 14.2092L196.244 14.211V16.7345V19.2579L188.095 19.2597C183.338 19.261 179.865 19.3129 179.75 19.3846C179.584 19.489 179.577 19.664 179.707 20.5479C180 22.54 180.711 23.8477 181.946 24.671C183.371 25.6203 184.573 25.7563 191.583 25.7614L197.183 25.7657V28.1564V30.547L190.577 30.5341C185.685 30.5246 183.657 30.4736 182.763 30.3378Z" fill="#1A90CB"/>
</g>
<defs>
<clipPath id="clip0_2002_417">
<rect width="200" height="34" fill="white"/>
</clipPath>
</defs>
</svg>
